<svg width="40" height="40" viewBox="0 0 25 25" fill="none" xmlns="http://www.w3.org/2000/svg">
<path d="M12.9258 16.6664C12.6333 16.6664 12.3962 16.4292 12.3962 16.1368L12.3962 13.4896L9.74894 13.4896C9.4565 13.4896 9.21933 13.2524 9.21933 12.96C9.21933 12.6675 9.45649 12.4304 9.74894 12.4304L12.3962 12.4304L12.3962 9.78312C12.3962 9.49068 12.6333 9.25351 12.9258 9.25351C13.2182 9.25351 13.4554 9.49068 13.4554 9.78312L13.4554 12.4304H16.1026C16.3951 12.4304 16.6322 12.6675 16.6322 12.96C16.6322 13.2524 16.3951 13.4896 16.1026 13.4896L13.4554 13.4896L13.4554 16.1368C13.4554 16.4292 13.2182 16.6664 12.9258 16.6664Z" fill="#878787"/>
<circle cx="12.5" cy="12.5" r="12" stroke="#AEAEAE" stroke-dasharray="2.5 2.5"/>
</svg>
