<svg width="40" height="40" viewBox="0 0 40 40" fill="none" xmlns="http://www.w3.org/2000/svg">
<g clip-path="url(#clip0)">
<path d="M26.3745 30H23.125C22.7792 30 22.5 29.7208 22.5 29.375C22.5 29.0292 22.7792 28.75 23.125 28.75H26.3745C26.72 28.75 26.9995 29.0292 26.9995 29.375C26.9995 29.7208 26.72 30 26.3745 30Z" fill="white"/>
<path d="M8.12597 34.3749C7.78021 34.3749 7.50098 34.0957 7.50098 33.7499C7.50098 30.993 9.74398 28.75 12.5009 28.75C12.8467 28.75 13.1259 29.0292 13.1259 29.375C13.1259 29.7207 12.8467 30 12.5009 30C10.4328 30 8.75096 31.6818 8.75096 33.7499C8.75096 34.0957 8.47173 34.3749 8.12597 34.3749Z" fill="white"/>
<path d="M15.625 30H12.5C12.1542 30 11.875 29.7208 11.875 29.375C11.875 29.0292 12.1542 28.75 12.5 28.75H15.625C15.9708 28.75 16.25 29.0292 16.25 29.375C16.25 29.7208 15.9708 30 15.625 30Z" fill="white"/>
<path d="M8.12598 35.001C7.78021 35.001 7.50098 34.7218 7.50098 34.376V33.8398C7.50098 33.4941 7.78021 33.2148 8.12598 33.2148C8.47174 33.2148 8.75098 33.4941 8.75098 33.8398V34.376C8.75098 34.7218 8.47174 35.001 8.12598 35.001Z" fill="white"/>
<path d="M15.625 29.9998C15.2792 29.9998 15 29.7206 15 29.3748V26.6572C15 26.3118 15.2792 26.0322 15.625 26.0322C15.9708 26.0322 16.25 26.3118 16.25 26.6572V29.3748C16.25 29.7206 15.9708 29.9998 15.625 29.9998Z" fill="white"/>
<path d="M23.125 29.9998C22.7792 29.9998 22.5 29.7206 22.5 29.3748V26.6572C22.5 26.3118 22.7792 26.0322 23.125 26.0322C23.4708 26.0322 23.75 26.3118 23.75 26.6572V29.3748C23.75 29.7206 23.4708 29.9998 23.125 29.9998Z" fill="white"/>
<path d="M19.3758 28.1248C14.2065 28.1248 10.001 23.9193 10.001 18.75C10.001 18.4051 10.2802 18.125 10.626 18.125C10.9717 18.125 11.251 18.4051 11.251 18.75C11.251 23.2299 14.8959 26.8749 19.3758 26.8749C23.8557 26.8749 27.5007 23.2299 27.5007 18.75C27.5007 18.4051 27.7799 18.125 28.1257 18.125C28.4715 18.125 28.7507 18.4051 28.7507 18.75C28.7507 23.9193 24.5451 28.1248 19.3758 28.1248V28.1248Z" fill="white"/>
<path d="M10.626 19.3605C10.2802 19.3605 10.001 19.0804 10.001 18.7355V12.5C10.001 12.1551 10.2802 11.875 10.626 11.875C10.9717 11.875 11.251 12.1551 11.251 12.5V18.7355C11.251 19.0804 10.9717 19.3605 10.626 19.3605Z" fill="white"/>
<path d="M28.125 19.3749C27.7792 19.3749 27.5 19.095 27.5 18.7499V11.875C27.5 11.5301 27.7792 11.25 28.125 11.25C28.4708 11.25 28.75 11.5301 28.75 11.875V18.7499C28.75 19.095 28.4708 19.3749 28.125 19.3749Z" fill="white"/>
<path d="M28.125 12.5C27.7792 12.5 27.5 12.2198 27.5 11.875C27.5 10.152 26.098 8.75 24.375 8.75C24.0292 8.75 23.75 8.46985 23.75 8.125C23.75 7.78015 24.0292 7.5 24.375 7.5C26.7868 7.5 28.75 9.46259 28.75 11.875C28.75 12.2198 28.4708 12.5 28.125 12.5Z" fill="white"/>
<path d="M24.375 8.75C24.0292 8.75 23.75 8.46985 23.75 8.125V5C23.75 4.65515 24.0292 4.375 24.375 4.375C24.7208 4.375 25 4.65515 25 5V8.125C25 8.46985 24.7208 8.75 24.375 8.75Z" fill="white"/>
<path d="M10.626 13.1249C10.2802 13.1249 10.001 12.8447 10.001 12.4999C10.001 8.01996 13.6459 4.375 18.1259 4.375C18.4716 4.375 18.7508 4.65515 18.7508 4.99999C18.7508 5.34483 18.4716 5.62498 18.1259 5.62498C14.3353 5.62498 11.251 8.70934 11.251 12.4999C11.251 12.8447 10.9717 13.1249 10.626 13.1249Z" fill="white"/>
<path d="M28.1252 16.2502C27.9653 16.2502 27.8051 16.1889 27.6833 16.0671L25.1833 13.5671C24.9389 13.3227 24.9389 12.9278 25.1833 12.6833C25.4278 12.4389 25.8227 12.4389 26.0671 12.6833L28.5671 15.1833C28.8116 15.4278 28.8116 15.8227 28.5671 16.0671C28.4454 16.1889 28.2851 16.2502 28.1252 16.2502Z" fill="white"/>
<path d="M19.3755 14.9993C15.8911 14.9993 12.9969 13.7499 12.8751 13.6968C12.5596 13.5586 12.4155 13.1906 12.5531 12.8744C12.6914 12.5573 13.0606 12.4136 13.3756 12.5512C13.403 12.5637 16.1618 13.7493 19.3755 13.7493C22.6 13.7493 25.348 12.5637 25.3755 12.5518C25.6917 12.4136 26.0603 12.5582 26.1979 12.8738C26.3368 13.1899 26.1924 13.5586 25.8754 13.6968C25.7542 13.7499 22.8588 14.9993 19.3755 14.9993Z" fill="white"/>
<path d="M10.6252 16.2424C10.4647 16.2424 10.3045 16.1813 10.1827 16.0587C9.93889 15.8145 9.93889 15.4187 10.1839 15.1749L12.6839 12.6825C12.929 12.4387 13.3239 12.4393 13.5677 12.6837C13.8116 12.9282 13.8116 13.3237 13.5665 13.5675L11.0665 16.0599C10.9447 16.182 10.7851 16.2424 10.6252 16.2424Z" fill="white"/>
<path d="M17.4998 31.249C17.3811 31.249 17.2606 31.2145 17.1534 31.1441L15.2784 29.8941C14.991 29.7021 14.9135 29.3145 15.1054 29.027C15.2968 28.7402 15.6834 28.6627 15.9724 28.854L17.8474 30.104C18.1349 30.296 18.2124 30.6835 18.0205 30.971C17.9005 31.1517 17.7015 31.249 17.4998 31.249V31.249Z" fill="white"/>
<path d="M17.5008 31.2498C17.2389 31.2498 16.9951 31.0841 16.9084 30.8223C16.7989 30.4948 16.9759 30.1405 17.3033 30.0315L19.1783 29.4065C19.5076 29.2967 19.8601 29.4743 19.969 29.8017C20.0783 30.1292 19.9013 30.4835 19.5738 30.5925L17.6988 31.2175C17.6326 31.2391 17.5658 31.2498 17.5008 31.2498V31.2498Z" fill="white"/>
<path d="M21.251 31.249C21.0493 31.249 20.8503 31.1517 20.7304 30.971C20.5385 30.6835 20.616 30.296 20.9034 30.104L22.7784 28.854C23.0659 28.6627 23.4541 28.7402 23.6455 29.027C23.8374 29.3145 23.7599 29.7021 23.4724 29.8941L21.5974 31.1441C21.4903 31.2145 21.3698 31.249 21.251 31.249Z" fill="white"/>
<path d="M21.2507 31.2497C21.1857 31.2497 21.1189 31.2391 21.0533 31.2174L19.1783 30.5924C18.8514 30.4835 18.6738 30.1298 18.7834 29.8017C18.8926 29.4748 19.2433 29.2966 19.5738 29.4065L21.4488 30.0315C21.7756 30.1404 21.9532 30.4941 21.844 30.8222C21.7564 31.084 21.5125 31.2497 21.2507 31.2497V31.2497Z" fill="white"/>
<path d="M19.3937 33.749C19.0482 33.749 18.7656 33.4698 18.7656 33.124C18.7656 32.7783 19.0418 32.499 19.387 32.499H19.3937C19.7388 32.499 20.0187 32.7783 20.0187 33.124C20.0187 33.4698 19.7388 33.749 19.3937 33.749Z" fill="white"/>
<path d="M19.3937 36.25C19.0482 36.25 18.7656 35.9708 18.7656 35.625C18.7656 35.2792 19.0418 35 19.387 35H19.3937C19.7388 35 20.0187 35.2792 20.0187 35.625C20.0187 35.9708 19.7388 36.25 19.3937 36.25Z" fill="white"/>
<path d="M24.3749 5.62498H18.125C17.7792 5.62498 17.5 5.34483 17.5 4.99999C17.5 4.65515 17.7792 4.375 18.125 4.375H24.3749C24.7207 4.375 24.9999 4.65515 24.9999 4.99999C24.9999 5.34483 24.7207 5.62498 24.3749 5.62498Z" fill="white"/>
<path d="M19.3757 38.7494C8.69225 38.7494 0.000976562 30.0584 0.000976562 19.3747C0.000976562 8.69188 8.69225 0 19.3757 0C30.0579 0 38.7491 8.69097 38.7504 19.3747C38.7504 22.0922 38.198 24.7222 37.1092 27.1901C36.9697 27.5066 36.6011 27.6497 36.2855 27.5103C35.969 27.3708 35.8265 27.0021 35.9654 26.6866C36.984 24.3771 37.5004 21.9171 37.5004 19.3747C37.4992 9.38035 29.3685 1.24998 19.3757 1.24998C9.38224 1.24998 1.25096 9.38035 1.25096 19.3747C1.25096 29.3684 9.38224 37.4994 19.3757 37.4994C21.9181 37.4994 24.3774 36.9837 26.6842 35.9656C27.0007 35.8277 27.3693 35.9702 27.5082 36.2857C27.6467 36.6013 27.5042 36.9706 27.1881 37.1094C24.7226 38.1976 22.0938 38.7494 19.3757 38.7494V38.7494Z" fill="white"/>
<path d="M32.4999 40.0004C30.4967 40.0004 28.6132 39.2204 27.1975 37.8034C25.78 36.3875 25 34.5036 25 32.4999C25 30.4967 25.7806 28.6129 27.1975 27.1975C28.6132 25.7806 30.4967 25 32.4999 25C34.503 25 36.3868 25.7806 37.8022 27.1975C39.2191 28.6129 39.9998 30.4967 39.9998 32.4999C39.9998 34.5036 39.2197 36.3875 37.8022 37.8034C36.3868 39.2204 34.503 40.0004 32.4999 40.0004V40.0004ZM32.4999 26.25C30.8306 26.25 29.2611 26.9 28.0813 28.0813C26.9 29.2611 26.25 30.8306 26.25 32.4999C26.25 34.1692 26.9 35.7393 28.0813 36.9197C29.2617 38.1004 30.8306 38.7504 32.4999 38.7504C34.1692 38.7504 35.7387 38.1004 36.9185 36.9197C38.0998 35.7393 38.7498 34.1692 38.7498 32.4999C38.7498 30.8306 38.0998 29.2611 36.9185 28.0813C35.7387 26.9 34.1692 26.25 32.4999 26.25V26.25Z" fill="white"/>
<path d="M35.6249 33.124H29.375C29.0292 33.124 28.75 32.8448 28.75 32.499C28.75 32.1533 29.0292 31.874 29.375 31.874H35.6249C35.9707 31.874 36.2499 32.1533 36.2499 32.499C36.2499 32.8448 35.9707 33.124 35.6249 33.124Z" fill="white"/>
<path d="M32.5 36.2499C32.1542 36.2499 31.875 35.9706 31.875 35.6249V29.375C31.875 29.0292 32.1542 28.75 32.5 28.75C32.8458 28.75 33.125 29.0292 33.125 29.375V35.6249C33.125 35.9706 32.8458 36.2499 32.5 36.2499Z" fill="white"/>
</g>
<defs>
<clipPath id="clip0">
<rect width="40" height="40" fill="white"/>
</clipPath>
</defs>
</svg>
