<svg width="70" height="70" viewBox="0 0 70 70" fill="none" xmlns="http://www.w3.org/2000/svg">
<path d="M53.6505 64.615L53.6527 64.6168C53.6558 64.6185 53.659 64.6202 53.6632 64.6218C53.8733 64.775 54.119 64.8786 54.3753 64.9562C54.4539 64.981 54.5275 64.9952 54.6063 65.011C54.8019 65.051 55.0024 65.0685 55.2096 65.0613C55.2858 65.0602 55.3586 65.0655 55.4361 65.0562C55.4759 65.0525 55.5127 65.0591 55.5514 65.0535C55.788 65.0174 56.0136 64.9482 56.2228 64.8544C56.2451 64.8463 56.2616 64.8287 56.2837 64.8186C56.5135 64.7088 56.7129 64.5637 56.8923 64.3973C56.9172 64.3739 56.9524 64.3636 56.9772 64.3392L68.1143 52.9459C68.9671 52.074 68.8649 50.7829 67.8827 50.0609C66.9017 49.3408 65.4147 49.4643 64.5601 50.3384L58.555 56.4799C58.873 48.2941 56.4308 40.5041 56.3122 40.1365C49.5781 16.0112 25.2983 0.756744 2.18818 6.13077C1.04394 6.39706 0.30013 7.33913 0.392061 8.32585C0.401895 8.4314 0.420688 8.5361 0.448631 8.64197C0.754282 9.73432 2.02577 10.3812 3.29108 10.0885C23.8758 5.30131 45.6062 19.2586 51.7501 41.2646C51.7836 41.3649 54.3111 49.4131 53.8168 57.2588L47.9501 49.1913C47.2614 48.2461 45.8091 47.9867 44.7051 48.6088C43.5989 49.2301 43.2662 50.4984 43.9481 51.4472L53.1957 64.1642C53.3232 64.3361 53.4768 64.4865 53.6505 64.615Z" fill="white"/>
</svg>
