<svg width="11" height="15" viewBox="0 0 11 15" fill="none" xmlns="http://www.w3.org/2000/svg">
<path d="M9.78577 0H1.21434C0.563669 0.000697543 0.0364641 0.527902 0.0357666 1.17857V13.8214C0.0364641 14.4721 0.563669 14.9993 1.21434 15H9.78577C10.4364 14.9993 10.9636 14.4721 10.9643 13.8214V1.17857C10.9636 0.527902 10.4364 0.000697543 9.78577 0ZM4.0108 1.1822H6.86794C7.00591 1.1822 7.11794 1.29408 7.11794 1.4322C7.11794 1.57017 7.00591 1.6822 6.86794 1.6822H4.0108C3.87268 1.6822 3.7608 1.57017 3.7608 1.4322C3.7608 1.29408 3.87268 1.1822 4.0108 1.1822ZM5.50005 4.41783C6.4596 4.41881 7.2368 5.19755 7.23583 6.15709C7.23485 7.11677 6.45611 7.89383 5.49643 7.89286C4.53688 7.89188 3.75982 7.11314 3.7608 6.1536C3.76386 5.19489 4.54135 4.41895 5.50005 4.41783ZM7.97857 11.8679H3.02154C2.95499 11.8683 2.89124 11.8421 2.84422 11.7951C2.79721 11.748 2.77112 11.6843 2.77154 11.6179C2.77154 10.8393 3.05362 10.1214 3.56785 9.5964C4.07818 9.07994 4.77405 8.78934 5.50005 8.78934C6.22606 8.78934 6.92193 9.07994 7.43225 9.5964C7.94648 10.1214 8.22857 10.8393 8.22857 11.6179C8.22899 11.6843 8.2029 11.748 8.15589 11.7951C8.10887 11.8421 8.04512 11.8683 7.97857 11.8679Z" fill="#BDBDBD"/>
</svg>
