<svg width="12" height="12" viewBox="0 0 12 12" fill="none" xmlns="http://www.w3.org/2000/svg">
<path d="M0.335221 11.047C-0.11174 10.6524 -0.11174 10.0123 0.335221 9.61768L4.38115 6.04552L0.335221 2.47336C-0.11174 2.07873 -0.11174 1.43869 0.335221 1.04406C0.782184 0.649437 1.50712 0.649437 1.95408 1.04406L6 4.61623L10.0459 1.04406C10.4929 0.649437 11.2178 0.649437 11.6648 1.04406C12.1117 1.43869 12.1117 2.07873 11.6648 2.47336L7.61885 6.04552L11.6648 9.61768C12.1117 10.0123 12.1117 10.6524 11.6648 11.047C11.2178 11.4416 10.4929 11.4416 10.0459 11.047L6 7.47481L1.95408 11.047C1.50712 11.4416 0.782184 11.4416 0.335221 11.047Z" fill="#C00000"/>
</svg>
