<svg width="20" height="20" viewBox="0 0 20 20" fill="none" xmlns="http://www.w3.org/2000/svg">
<path d="M16.6667 7.5H9.16667C8.24619 7.5 7.5 8.24619 7.5 9.16667V16.6667C7.5 17.5871 8.24619 18.3333 9.16667 18.3333H16.6667C17.5871 18.3333 18.3333 17.5871 18.3333 16.6667V9.16667C18.3333 8.24619 17.5871 7.5 16.6667 7.5Z" stroke="white" stroke-width="1.5" stroke-linecap="round" stroke-linejoin="round"/>
<path d="M4.16602 12.4993H3.33268C2.89065 12.4993 2.46673 12.3238 2.15417 12.0112C1.84161 11.6986 1.66602 11.2747 1.66602 10.8327V3.33268C1.66602 2.89065 1.84161 2.46673 2.15417 2.15417C2.46673 1.84161 2.89065 1.66602 3.33268 1.66602H10.8327C11.2747 1.66602 11.6986 1.84161 12.0112 2.15417C12.3238 2.46673 12.4993 2.89065 12.4993 3.33268V4.16602" stroke="white" stroke-width="1.5" stroke-linecap="round" stroke-linejoin="round"/>
</svg>
