<svg width="15" height="15" viewBox="0 0 12 12" fill="none" xmlns="http://www.w3.org/2000/svg">
<circle cx="6" cy="6" r="5.5" fill="#F50303" stroke="#26A1A1"/>
<path d="M7.85034 7.8504C7.70434 7.9964 7.46754 7.9964 7.32154 7.8504L5.99994 6.5288L4.67834 7.8504C4.53234 7.9964 4.29554 7.9964 4.14954 7.8504C4.00354 7.7044 4.00354 7.4676 4.14954 7.3216L5.47114 6L4.14954 4.6784C4.00354 4.5324 4.00354 4.2956 4.14954 4.1496C4.29554 4.0036 4.53234 4.0036 4.67834 4.1496L5.99994 5.4712L7.32154 4.1496C7.46754 4.0036 7.70434 4.0036 7.85034 4.1496C7.99634 4.2956 7.99634 4.5324 7.85034 4.6784L6.52874 6L7.85034 7.3216C7.99634 7.4676 7.99634 7.7044 7.85034 7.8504Z" fill="white"/>
</svg>
