<svg width="20" height="21" viewBox="0 0 20 21" fill="none" xmlns="http://www.w3.org/2000/svg">
<path fill-rule="evenodd" clip-rule="evenodd" d="M3.11286 19.4171C3.11286 19.4171 3.4922 20.831 5.44478 20.831H14.2735C16.226 20.831 16.6053 19.4171 16.6053 19.4171L18.3483 5.55496H1.37001L3.11286 19.4171ZM13.2548 7.63809C13.2548 7.25456 13.6348 6.94374 14.1037 6.94374C14.5726 6.94374 14.9527 7.25456 14.9527 7.63809L14.1037 18.0536C14.1037 18.4371 13.7236 18.7479 13.2548 18.7479C12.786 18.7479 12.4059 18.437 12.4059 18.0536L13.2548 7.63809ZM9.01025 7.63809C9.01025 7.25456 9.39035 6.94374 9.85915 6.94374C10.328 6.94374 10.708 7.25456 10.708 7.63809V18.0536C10.708 18.4371 10.328 18.7479 9.85915 18.7479C9.39026 18.7479 9.01025 18.437 9.01025 18.0536V7.63809ZM5.61458 6.94366C6.08347 6.94366 6.46347 7.25449 6.46347 7.63801L7.31246 18.0535C7.31246 18.437 6.93236 18.7479 6.46347 18.7479C5.99468 18.7479 5.61458 18.437 5.61458 18.0535L4.76568 7.63809C4.76568 7.25456 5.14578 6.94366 5.61458 6.94366ZM17.8389 2.77857H14.1037V1.38878C14.1037 0.335343 13.6872 0 12.4059 0H7.31237C6.13716 0 5.61458 0.465616 5.61458 1.38878V2.77864H1.87941C1.12869 2.77864 0.521118 3.24473 0.521118 3.82067C0.521118 4.3967 1.12869 4.86278 1.87941 4.86278H17.8389C18.5896 4.86278 19.1972 4.3967 19.1972 3.82067C19.1972 3.24473 18.5896 2.77857 17.8389 2.77857ZM12.4059 2.77857H7.31246L7.31256 1.3887H12.406V2.77857H12.4059Z" fill="white"/>
</svg>
