<svg width="24" height="24" viewBox="0 0 24 24" fill="none" xmlns="http://www.w3.org/2000/svg">
<path d="M12 22C17.5228 22 22 17.5228 22 12C22 6.47715 17.5228 2 12 2C6.47715 2 2 6.47715 2 12C2 17.5228 6.47715 22 12 22Z" fill="#626262"/>
<path fill-rule="evenodd" clip-rule="evenodd" d="M15.297 8.015C15.1146 8.015 14.9397 8.08746 14.8107 8.21645L8.61187 14.4152L8.28763 15.7122L9.58459 15.388L15.7834 9.18917C15.9124 9.06018 15.9848 8.88523 15.9848 8.70281C15.9848 8.52039 15.9124 8.34544 15.7834 8.21645C15.6544 8.08746 15.4794 8.015 15.297 8.015ZM13.7808 7.18662C14.183 6.7845 14.7283 6.55859 15.297 6.55859C15.8657 6.55859 16.4111 6.7845 16.8132 7.18662C17.2153 7.58874 17.4412 8.13413 17.4412 8.70281C17.4412 9.2715 17.2153 9.81689 16.8132 10.219L10.4718 16.5604C10.3785 16.6537 10.2615 16.72 10.1335 16.752L7.46343 17.4195C7.21527 17.4815 6.95277 17.4088 6.77189 17.2279C6.59102 17.0471 6.51831 16.7846 6.58035 16.5364L7.24787 13.8663C7.27988 13.7383 7.34609 13.6214 7.43941 13.528L13.7808 7.18662Z" fill="white"/>
</svg>
