<svg width="20" height="20" viewBox="0 0 20 20" fill="none" xmlns="http://www.w3.org/2000/svg">
<path d="M14.166 2.5009C14.3849 2.28203 14.6447 2.10842 14.9307 1.98996C15.2167 1.87151 15.5232 1.81055 15.8327 1.81055C16.1422 1.81055 16.4487 1.87151 16.7347 1.98996C17.0206 2.10842 17.2805 2.28203 17.4993 2.5009C17.7182 2.71977 17.8918 2.97961 18.0103 3.26558C18.1287 3.55154 18.1897 3.85804 18.1897 4.16757C18.1897 4.4771 18.1287 4.7836 18.0103 5.06956C17.8918 5.35553 17.7182 5.61537 17.4993 5.83424L6.24935 17.0842L1.66602 18.3342L2.91602 13.7509L14.166 2.5009Z" stroke="#27ae60" stroke-width="1.5" stroke-linecap="round" stroke-linejoin="round"/>
</svg>
