<svg width="24" height="24" viewBox="0 0 24 24" fill="none" xmlns="http://www.w3.org/2000/svg">
<g clip-path="url(#clip0)">
<path d="M12 19.1531C7.41454 19.1531 3.25621 16.6443 0.187788 12.5695C-0.0625959 12.2356 -0.0625959 11.7692 0.187788 11.4354C3.25621 7.35559 7.41454 4.84685 12 4.84685C16.5855 4.84685 20.7438 7.35559 23.8122 11.4305C24.0626 11.7643 24.0626 12.2307 23.8122 12.5646C20.7438 16.6443 16.5855 19.1531 12 19.1531ZM12.3289 6.96284C9.28506 6.77137 6.7714 9.28011 6.96287 12.3289C7.11998 14.8426 9.15741 16.88 11.6711 17.0371C14.7149 17.2286 17.2286 14.7198 17.0371 11.671C16.8751 9.16228 14.8377 7.12485 12.3289 6.96284ZM12.1767 9.28993C10.537 9.18683 9.18196 10.5369 9.28997 12.1767C9.37343 13.5317 10.4732 14.6265 11.8282 14.7149C13.4679 14.818 14.823 13.4679 14.7149 11.8281C14.6266 10.4682 13.5268 9.37339 12.1767 9.28993Z" fill="#5E5D5D"/>
</g>
<defs>
<clipPath id="clip0">
<rect width="24" height="24" fill="white" transform="matrix(1 0 0 -1 0 24)"/>
</clipPath>
</defs>
</svg>
