<svg width="15" height="15" viewBox="0 0 15 15" fill="none" xmlns="http://www.w3.org/2000/svg">
<path d="M14.4051 3.43031C14.0085 2.96157 13.5338 2.72724 12.9808 2.72724H6.9231V2.38634C6.9231 1.73294 6.72473 1.17185 6.32816 0.703219C5.93154 0.234481 5.45673 0 4.90385 0H2.01922C1.46621 0 0.991473 0.234444 0.594909 0.703219C0.198282 1.17185 0 1.73294 0 2.38634V12.6137C0 13.267 0.198282 13.828 0.594909 14.2967C0.991536 14.7655 1.46634 15 2.01922 15H12.9808C13.5338 15 14.0085 14.7656 14.4051 14.2967C14.8018 13.828 15 13.2669 15 12.6137V5.11373C15 4.46029 14.8018 3.89924 14.4051 3.43031Z" fill="#BDBDBD"/>
</svg>
