<svg width="120" height="120" viewBox="0 0 120 120" fill="none" xmlns="http://www.w3.org/2000/svg">
<rect width="120" height="120" rx="4" fill="#4F4F4F"/>
<path d="M70.5606 75.9994H65.6863C65.1677 75.9994 64.7488 75.5805 64.7488 75.0619C64.7488 74.5433 65.1677 74.1244 65.6863 74.1244H70.5606C71.0788 74.1244 71.4981 74.5433 71.4981 75.0619C71.4981 75.5805 71.0788 75.9994 70.5606 75.9994Z" fill="white"/>
<path d="M43.1879 82.5618C42.6693 82.5618 42.2504 82.1429 42.2504 81.6243C42.2504 77.4889 45.6149 74.1244 49.7503 74.1244C50.2689 74.1244 50.6878 74.5432 50.6878 75.0619C50.6878 75.5805 50.2689 75.9994 49.7503 75.9994C46.6481 75.9994 44.1254 78.5221 44.1254 81.6243C44.1254 82.1429 43.7066 82.5618 43.1879 82.5618Z" fill="white"/>
<path d="M77.499 82.5618C78.0176 82.5618 78.4365 82.1429 78.4365 81.6243C78.4365 77.4889 75.0719 74.1244 70.9366 74.1244C70.4179 74.1244 69.9991 74.5432 69.9991 75.0619C69.9991 75.5805 70.4179 75.9994 70.9366 75.9994C74.0388 75.9994 76.5615 78.5221 76.5615 81.6243C76.5615 82.1429 76.9803 82.5618 77.499 82.5618Z" fill="white"/>
<path d="M54.4369 75.9994L49.7503 75.9994C49.2317 75.9994 48.8119 75.5805 48.8119 75.0619C48.8119 74.5433 49.2317 74.1244 49.7503 74.1244H54.4369C54.9555 74.1244 55.3744 74.5433 55.3744 75.0619C55.3744 75.5805 54.9555 75.9994 54.4369 75.9994Z" fill="white"/>
<path d="M43.1879 83.5012C42.6693 83.5012 42.2504 83.0823 42.2504 82.5637V81.7594C42.2504 81.2407 42.6693 80.8219 43.1879 80.8219C43.7066 80.8219 44.1254 81.2407 44.1254 81.7594V82.5637C44.1254 83.0823 43.7066 83.5012 43.1879 83.5012Z" fill="white"/>
<path d="M54.4369 75.9994C53.9182 75.9994 53.4991 75.5802 53.4991 75.0616V70.9852C53.4991 70.467 53.918 70.0477 54.4366 70.0477C54.9553 70.0477 55.3741 70.467 55.3741 70.9852L55.3744 75.0619C55.3744 75.5805 54.9555 75.9994 54.4369 75.9994Z" fill="white"/>
<path d="M65.6863 75.9994C65.1677 75.9994 64.7488 75.5805 64.7488 75.0619V70.9852C64.7488 70.467 65.1677 70.0477 65.6863 70.0477C66.205 70.0477 66.6238 70.467 66.6238 70.9852V75.0616C66.6238 75.5802 66.205 75.9994 65.6863 75.9994Z" fill="white"/>
<path d="M60.0625 73.1872C52.3086 73.1872 46.0003 66.8788 46.0003 59.1249C46.0003 58.6076 46.4191 58.1874 46.9378 58.1874C47.4564 58.1874 47.8752 58.6076 47.8752 59.1249C47.8752 65.8447 53.3427 71.3122 60.0625 71.3122C66.7824 71.3122 72.2499 65.8447 72.2499 59.1249C72.2499 58.6076 72.6687 58.1874 73.1873 58.1874C73.706 58.1874 74.1248 58.6076 74.1248 59.1249C74.1248 66.8788 67.8165 73.1872 60.0625 73.1872Z" fill="white"/>
<path d="M46.9378 60.0412C46.4191 60.0412 46.0003 59.621 46.0003 59.1037V49.7504C46.0003 49.2331 46.4191 48.8129 46.9378 48.8129C47.4564 48.8129 47.8752 49.2331 47.8752 49.7504V59.1037C47.8752 59.621 47.4564 60.0412 46.9378 60.0412Z" fill="white"/>
<path d="M73.1862 60.0626C72.6676 60.0626 72.2487 59.6429 72.2487 59.1252V48.8128C72.2487 48.2955 72.6676 47.8753 73.1862 47.8753C73.7049 47.8753 74.1237 48.2955 74.1237 48.8128V59.1252C74.1237 59.6429 73.7049 60.0626 73.1862 60.0626Z" fill="white"/>
<path d="M73.1866 49.7504C72.668 49.7504 72.2487 49.3301 72.2487 48.8128C72.2487 46.2283 70.1462 44.1254 67.5616 44.1254C67.043 44.1254 66.6241 43.7052 66.6241 43.1879C66.6241 42.6706 67.043 42.2504 67.5616 42.2504C71.1793 42.2504 74.1237 45.1942 74.1237 48.8128C74.1237 49.3301 73.7053 49.7504 73.1866 49.7504Z" fill="white"/>
<path d="M67.5616 44.1254C67.043 44.1254 66.6241 43.7052 66.6241 43.1879L66.6246 38.5C66.6246 37.9827 67.0434 37.5625 67.5621 37.5625C68.0807 37.5625 68.4996 37.9827 68.4996 38.5V43.1875C68.4996 43.7048 68.0803 44.1254 67.5616 44.1254Z" fill="white"/>
<path d="M46.9378 50.6867C46.4191 50.6867 46.0003 50.2664 46.0003 49.7492C46.0003 43.0293 51.4677 37.5619 58.1876 37.5619C58.7062 37.5619 59.1251 37.9821 59.1251 38.4994C59.1251 39.0166 58.7062 39.4368 58.1876 39.4368C52.5018 39.4368 47.8752 44.0634 47.8752 49.7492C47.8752 50.2664 47.4564 50.6867 46.9378 50.6867Z" fill="white"/>
<path d="M73.1869 55.3752C72.947 55.3752 72.7067 55.2832 72.5241 55.1005L68.7741 51.3505C68.4074 50.9839 68.4074 50.3915 68.7741 50.0249C69.1407 49.6582 69.7331 49.6582 70.0997 50.0249L73.8497 53.7749C74.2164 54.1415 74.2164 54.7339 73.8497 55.1005C73.6671 55.2832 73.4268 55.3752 73.1869 55.3752Z" fill="white"/>
<path d="M60.0621 53.4989C54.8355 53.4989 50.4941 51.6248 50.3115 51.5452C49.8381 51.3378 49.6221 50.7858 49.8285 50.3115C50.0359 49.8359 50.5898 49.6203 51.0622 49.8268C51.1034 49.8455 55.2415 51.6239 60.0621 51.6239C64.8988 51.6239 69.0209 49.8455 69.0621 49.8277C69.5363 49.6203 70.0893 49.8373 70.2957 50.3106C70.504 50.7849 70.2875 51.3378 69.8119 51.5452C69.6301 51.6248 65.2869 53.4989 60.0621 53.4989Z" fill="white"/>
<path d="M46.9368 55.3632C46.696 55.3632 46.4557 55.2716 46.273 55.0876C45.9073 54.7214 45.9073 54.1276 46.2749 53.7619L50.0249 50.0233C50.3925 49.6576 50.9848 49.6585 51.3506 50.0252C51.7163 50.3918 51.7163 50.9851 51.3487 51.3508L47.5987 55.0894C47.4161 55.2725 47.1767 55.3632 46.9368 55.3632Z" fill="white"/>
<path d="M57.2485 77.8739C57.0704 77.8739 56.8896 77.8222 56.7289 77.7164L53.9164 75.8414C53.4852 75.5535 53.369 74.9721 53.6569 74.5409C53.9439 74.1106 54.5239 73.9944 54.9574 74.2814L57.7699 76.1564C58.2011 76.4443 58.3174 77.0257 58.0294 77.4569C57.8495 77.7279 57.5511 77.8739 57.2485 77.8739Z" fill="white"/>
<path d="M57.2501 77.8746C56.8574 77.8746 56.4916 77.626 56.3616 77.2333C56.1973 76.7421 56.4628 76.2106 56.954 76.0472L59.7665 75.1097C60.2604 74.9449 60.7891 75.2113 60.9525 75.7025C61.1164 76.1937 60.8509 76.7251 60.3597 76.8886L57.5472 77.8261C57.4479 77.8586 57.3477 77.8746 57.2501 77.8746Z" fill="white"/>
<path d="M62.8757 77.8739C62.5731 77.8739 62.2746 77.7279 62.0947 77.4569C61.8068 77.0257 61.9231 76.4443 62.3543 76.1564L65.1668 74.2814C65.598 73.9944 66.1803 74.1106 66.4673 74.5409C66.7552 74.9721 66.6389 75.5535 66.2077 75.8414L63.3952 77.7164C63.2345 77.8222 63.0537 77.8739 62.8757 77.8739Z" fill="white"/>
<path d="M62.8757 77.8739C62.7782 77.8739 62.6771 77.8583 62.5787 77.8258L59.7662 76.8883C59.2759 76.7249 59.0095 76.1944 59.1738 75.7023C59.3377 75.212 59.8637 74.9447 60.3594 75.1095L63.1719 76.047C63.6622 76.2104 63.9286 76.7409 63.7647 77.233C63.6334 77.6258 63.2684 77.8739 62.8757 77.8739Z" fill="white"/>
<path d="M60.0897 81.6236C59.5715 81.6236 59.1476 81.2047 59.1476 80.6861C59.1476 80.1674 59.5619 79.7486 60.0796 79.7486H60.0897C60.6074 79.7486 61.0272 80.1674 61.0272 80.6861C61.0272 81.2047 60.6074 81.6236 60.0897 81.6236Z" fill="white"/>
<path d="M60.0897 85.3745C59.5715 85.3745 59.1476 84.9556 59.1476 84.437C59.1476 83.9184 59.5619 83.4995 60.0796 83.4995H60.0897C60.6074 83.4995 61.0272 83.9184 61.0272 84.437C61.0272 84.9556 60.6074 85.3745 60.0897 85.3745Z" fill="white"/>
<path d="M67.5619 39.4375L58.1876 39.4368C57.6689 39.4368 57.2496 39.0173 57.2496 38.5C57.2496 37.9827 57.6689 37.5619 58.1876 37.5619L67.5621 37.5625C68.0807 37.5625 68.4996 37.9827 68.4996 38.5C68.4996 39.0173 68.0805 39.4375 67.5619 39.4375Z" fill="white"/>
<path d="M60.062 89.1241C44.0369 89.1241 31 76.0876 31 60.062C31 44.0378 44.0369 31 60.062 31C76.0854 31 89.1223 44.0364 89.1241 60.062C89.1241 64.1384 88.2955 68.0833 86.6623 71.7852C86.4531 72.2599 85.9001 72.4746 85.4268 72.2654C84.9521 72.0562 84.7383 71.5032 84.9466 71.0299C86.4746 67.5656 87.2491 63.8756 87.2491 60.062C87.2473 45.0705 75.0513 32.875 60.062 32.875C45.0719 32.875 32.875 45.0705 32.875 60.062C32.875 75.0527 45.0719 87.2491 60.062 87.2491C63.8756 87.2491 67.5647 86.4755 71.0249 84.9484C71.4995 84.7415 72.0525 84.9553 72.2608 85.4286C72.4686 85.9019 72.2548 86.4558 71.7806 86.6641C68.0824 88.2965 64.1393 89.1241 60.062 89.1241Z" fill="white"/>
<path d="M85.2306 74.5931C77.218 88.4712 59.4097 93.2433 45.5311 85.2305C31.6537 77.2184 26.8811 59.4092 34.8936 45.531C42.9053 31.6544 60.7136 26.8824 74.5931 34.8936C78.1233 36.9317 81.1255 39.6217 83.5148 42.8871C83.8213 43.3057 83.7307 43.8919 83.3129 44.1972C82.8944 44.5037 82.3086 44.4123 82.0028 43.9953C79.7666 40.9399 76.9583 38.4241 73.6556 36.5174C60.6717 29.0232 44.012 33.4875 36.5174 46.4685C29.0223 59.4504 33.4855 76.111 46.4686 83.6067C59.4508 91.1021 76.1117 86.6374 83.6068 73.6556C85.5136 70.3529 86.6882 66.7713 87.0958 63.0112C87.1539 62.4966 87.6155 62.1246 88.1296 62.1809C88.6434 62.2376 89.0162 62.6997 88.9594 63.2145C88.524 67.2334 87.2692 71.0621 85.2306 74.5931Z" fill="white"/>
</svg>
