<svg width="150" height="150" viewBox="0 0 150 150" fill="none" 
    xmlns="http://www.w3.org/2000/svg">
    <rect width="150" height="150" fill="#E5E5E5"/>
    <path d="M75.5001 74.5004C80.5392 74.5004 84.8402 72.7176 88.4042 69.1534C91.9686 65.5892 93.7511 61.2882 93.7511 56.2498C93.7511 51.2122 91.9686 46.9111 88.4042 43.346C84.839 39.782 80.5379 38 75.5001 38C70.4624 38 66.1606 39.782 62.5966 43.346C59.0319 46.9111 57.2495 51.212 57.2495 56.2498C57.2495 61.2882 59.0319 65.5892 62.5966 69.1534C66.1616 72.7176 70.4622 74.5004 75.5001 74.5004Z" fill="#A5A5A5"/>
    <path d="M108.792 93.7717C108.681 92.1721 108.459 90.4449 108.127 88.5911C107.794 86.7374 107.374 85.0193 106.867 83.4344C106.36 81.8506 105.678 80.3058 104.823 78.8006C103.968 77.2956 102.985 76.0127 101.876 74.9508C100.766 73.8892 99.4119 73.0423 97.813 72.4087C96.2121 71.7753 94.4456 71.458 92.5127 71.458C92.2279 71.458 91.5624 71.7986 90.5166 72.4799C89.4719 73.1613 88.2915 73.9219 86.9766 74.7618C85.6618 75.6003 83.9499 76.3614 81.8438 77.0416C79.7367 77.7229 77.622 78.0637 75.4984 78.0637C73.3757 78.0637 71.2609 77.7229 69.1541 77.0416C67.0475 76.3614 65.3361 75.6003 64.0211 74.7618C62.7064 73.9219 61.5263 73.1614 60.4809 72.4799C59.435 71.7986 58.77 71.458 58.4848 71.458C56.5522 71.458 54.7856 71.7753 53.1857 72.4087C51.5855 73.0423 50.2311 73.8899 49.122 74.9508C48.0131 76.0127 47.0308 77.2956 46.1757 78.8006C45.3206 80.3058 44.6394 81.8513 44.1323 83.4344C43.6254 85.0193 43.2054 86.7374 42.8728 88.5911C42.5399 90.4449 42.3182 92.171 42.2071 93.7717C42.0963 95.3724 42.041 97.0121 42.041 98.6914C42.041 102.493 43.1978 105.496 45.5105 107.698C47.8237 109.899 50.8973 111 54.731 111H96.2697C100.103 111 103.176 109.899 105.49 107.698C107.804 105.496 108.96 102.493 108.96 98.6914C108.96 97.0121 108.904 95.3724 108.792 93.7717Z" fill="#A5A5A5"/>
</svg>