<svg width="16" height="16" viewBox="0 0 16 16" fill="none" xmlns="http://www.w3.org/2000/svg">
<g clip-path="url(#clip0)">
<path fill-rule="evenodd" clip-rule="evenodd" d="M7.85451 0.583344C3.83287 0.583344 0.572693 3.9039 0.572693 8.00001C0.572693 12.0961 3.83287 15.4167 7.85451 15.4167C11.8762 15.4167 15.1363 12.0961 15.1363 8.00001C15.1363 3.9039 11.8762 0.583344 7.85451 0.583344ZM7.05598 5.3705C7.35583 5.19102 7.70837 5.12541 8.05116 5.18529C8.39395 5.24518 8.70487 5.4267 8.92885 5.6977C9.15284 5.9687 9.27542 6.31244 9.27491 6.66668C9.27491 7.06792 8.97295 7.43746 8.51169 7.75066C8.296 7.89711 8.07682 8.00909 7.90962 8.08478C7.82672 8.1223 7.75832 8.15014 7.71179 8.16819C7.68857 8.1772 7.67092 8.18373 7.65977 8.18776L7.64809 8.19193L7.64616 8.19261C7.38945 8.28024 7.25081 8.56309 7.33646 8.8248C7.4222 9.08677 7.70051 9.22825 7.95772 9.14092L7.95888 9.14053L7.96106 9.13978L7.96754 9.13752L7.98869 9.12998C8.00631 9.1236 8.03085 9.1145 8.06132 9.10268C8.12218 9.07906 8.20719 9.04439 8.30838 8.99859C8.50936 8.90761 8.78109 8.76958 9.05631 8.58271C9.57678 8.2293 10.2565 7.59898 10.2567 6.66713C10.2575 6.07684 10.0532 5.50529 9.67997 5.0537C9.30667 4.60203 8.78846 4.2995 8.21714 4.19969C7.64582 4.09987 7.05825 4.20923 6.55851 4.50837C6.05876 4.80752 5.67908 5.27715 5.48672 5.83409C5.39676 6.09459 5.53115 6.38005 5.78691 6.47168C6.04267 6.56332 6.32294 6.42643 6.41291 6.16594C6.52832 5.83177 6.75613 5.54999 7.05598 5.3705ZM7.80218 8.66668L7.95772 9.14092C7.95756 9.14097 7.95742 9.14102 7.80218 8.66668ZM7.85455 10.8333C7.58343 10.8333 7.36364 11.0572 7.36364 11.3333C7.36364 11.6095 7.58343 11.8333 7.85455 11.8333H7.86069C8.13181 11.8333 8.3516 11.6095 8.3516 11.3333C8.3516 11.0572 8.13181 10.8333 7.86069 10.8333H7.85455Z" fill="white"/>
</g>
<defs>
<clipPath id="clip0">
<rect width="15.7091" height="16" fill="white"/>
</clipPath>
</defs>
</svg>
