<svg width="20" height="20" viewBox="0 0 20 20" fill="none" xmlns="http://www.w3.org/2000/svg">
<path d="M9.99935 18.3327C14.6017 18.3327 18.3327 14.6017 18.3327 9.99935C18.3327 5.39698 14.6017 1.66602 9.99935 1.66602C5.39698 1.66602 1.66602 5.39698 1.66602 9.99935C1.66602 14.6017 5.39698 18.3327 9.99935 18.3327Z" stroke="white" stroke-width="1.5" stroke-linecap="round" stroke-linejoin="round"/>
<path d="M7.57422 7.50047C7.77014 6.94353 8.15685 6.4739 8.66585 6.17475C9.17485 5.87561 9.7733 5.76626 10.3552 5.86607C10.9371 5.96588 11.4649 6.26841 11.8451 6.72008C12.2253 7.17175 12.4334 7.74341 12.4326 8.33381C12.4326 10.0005 9.93255 10.8338 9.93255 10.8338" stroke="white" stroke-width="1.5" stroke-linecap="round" stroke-linejoin="round"/>
<path d="M10 14.166H10.0083" stroke="white" stroke-width="1.5" stroke-linecap="round" stroke-linejoin="round"/>
</svg>
