<svg width="8" height="15" viewBox="0 0 8 15" fill="none" xmlns="http://www.w3.org/2000/svg">
<path d="M4.30648 6.58333C2.52259 6.09167 1.94892 5.58333 1.94892 4.79167C1.94892 3.88333 2.74263 3.25 4.07073 3.25C5.46955 3.25 5.98821 3.95833 6.03536 5H7.7721C7.71709 3.56667 6.89194 2.25 5.24951 1.825V0H2.89194V1.8C1.36739 2.15 0.141454 3.2 0.141454 4.80833C0.141454 6.73333 1.64244 7.69167 3.83497 8.25C5.79961 8.75 6.19253 9.48333 6.19253 10.2583C6.19253 10.8333 5.80747 11.75 4.07073 11.75C2.45187 11.75 1.81532 10.9833 1.72888 10H0C0.0943025 11.825 1.3831 12.85 2.89194 13.1917V15H5.24951V13.2083C6.78192 12.9 8 11.9583 8 10.25C8 7.88333 6.09037 7.075 4.30648 6.58333Z" fill="#BDBDBD"/>
</svg>
