<svg width="72" height="72" viewBox="0 0 72 72" fill="none" xmlns="http://www.w3.org/2000/svg">
<path d="M71.1383 33.964L39.0638 2.96145L36 0L11.8723 23.3214L0.861702 33.964C-0.287234 35.0746 -0.287234 36.9255 0.861702 38.036L22.883 59.3214L36 72L60.1277 48.6787L60.5106 48.3085L71.1383 38.036C72.2872 36.9255 72.2872 35.0746 71.1383 33.964ZM35.9043 46.6427L24.8936 36L35.9043 25.3573L46.9149 36L35.9043 46.6427Z" fill="url(#paint0_linear)"/>
<path d="M35.9033 25.3565C28.7225 18.4156 28.6267 7.12516 35.8076 0.0917358L11.6799 23.4131L24.797 36.0917L35.9033 25.3565Z" fill="url(#paint1_linear)"/>
<path d="M46.9157 35.9075L35.905 46.5502C43.1816 53.5836 43.1816 64.8741 35.905 71.9076L60.1284 48.4937L46.9157 35.9075Z" fill="url(#paint2_linear)"/>
<defs>
<linearGradient id="paint0_linear" x1="6.25745" y1="42.7684" x2="33.4073" y2="1.02419" gradientUnits="userSpaceOnUse">
<stop stop-color="#BDBDBD"/>
<stop offset="1" stop-color="#828282"/>
</linearGradient>
<linearGradient id="paint1_linear" x1="13.7852" y1="21.4759" x2="28.6271" y2="6.12084" gradientUnits="userSpaceOnUse">
<stop stop-color="#BDBDBD"/>
<stop offset="1" stop-color="#828282"/>
</linearGradient>
<linearGradient id="paint2_linear" x1="38.0103" y1="57.2917" x2="52.8522" y2="41.9366" gradientUnits="userSpaceOnUse">
<stop stop-color="#BDBDBD"/>
<stop offset="1" stop-color="#828282"/>
</linearGradient>
</defs>
</svg>
