<svg width="20" height="20" viewBox="0 0 20 20" fill="none" xmlns="http://www.w3.org/2000/svg">
<path d="M8.33398 10.834C8.69186 11.3124 9.14845 11.7083 9.67278 11.9947C10.1971 12.2812 10.7769 12.4516 11.3729 12.4942C11.9688 12.5369 12.567 12.4509 13.1268 12.2421C13.6866 12.0333 14.1949 11.7065 14.6173 11.284L17.1173 8.78396C17.8763 7.99811 18.2963 6.9456 18.2868 5.85312C18.2773 4.76063 17.8391 3.71558 17.0666 2.94304C16.294 2.17051 15.249 1.73231 14.1565 1.72281C13.064 1.71332 12.0115 2.1333 11.2257 2.89229L9.79232 4.31729" stroke="white" stroke-width="1.5" stroke-linecap="round" stroke-linejoin="round"/>
<path d="M11.6659 9.16702C11.308 8.68858 10.8514 8.2927 10.3271 8.00623C9.80274 7.71977 9.22293 7.54942 8.62698 7.50674C8.03103 7.46406 7.43287 7.55004 6.87307 7.75887C6.31327 7.96769 5.80493 8.29446 5.38252 8.71702L2.88252 11.217C2.12353 12.0029 1.70355 13.0554 1.71305 14.1479C1.72254 15.2403 2.16075 16.2854 2.93328 17.0579C3.70581 17.8305 4.75086 18.2687 5.84335 18.2782C6.93584 18.2877 7.98835 17.8677 8.77419 17.1087L10.1992 15.6837" stroke="white" stroke-width="1.5" stroke-linecap="round" stroke-linejoin="round"/>
</svg>
