<svg width="15" height="15" viewBox="0 0 15 15" fill="none" xmlns="http://www.w3.org/2000/svg">
<g clip-path="url(#clip0)">
<path d="M9.46453 12.9849H1.75835V2.01534H9.46484C9.63566 2.01534 9.7743 1.87671 9.7743 1.70588V0.566296C9.7743 0.395474 9.63566 0.256836 9.46484 0.256836H0.30946C0.138638 0.256836 0 0.395474 0 0.566296V14.4337C0 14.6045 0.138638 14.7431 0.30946 14.7431H9.46453C9.63551 14.7431 9.77399 14.6045 9.77399 14.4337V13.2944C9.77399 13.1233 9.63566 12.9849 9.46453 12.9849Z" fill="#BDBDBD"/>
<path d="M14.909 7.28124L10.7433 3.1159C10.6273 2.9997 10.4218 2.99985 10.3057 3.1159L9.31747 4.10432C9.19663 4.22516 9.19663 4.42105 9.31747 4.54189L11.199 6.42372H3.05384C2.88302 6.42372 2.74438 6.56236 2.74438 6.73318V8.26687C2.74438 8.43769 2.88302 8.57633 3.05384 8.57633H11.1995L9.31794 10.4582C9.19709 10.579 9.19709 10.7749 9.31794 10.8957L10.3062 11.8843C10.3642 11.9423 10.4431 11.975 10.525 11.975C10.6072 11.975 10.6858 11.9423 10.7438 11.8843L14.9094 7.71897C14.9674 7.66094 15.0001 7.58203 15.0001 7.50018C14.9999 7.41786 14.967 7.33926 14.909 7.28124Z" fill="#BDBDBD"/>
</g>
<defs>
<clipPath id="clip0">
<rect width="15" height="15" fill="white"/>
</clipPath>
</defs>
</svg>
