<svg width="20" height="20" viewBox="0 0 20 20" fill="none" xmlns="http://www.w3.org/2000/svg">
<path d="M10.0003 10.8337C10.4606 10.8337 10.8337 10.4606 10.8337 10.0003C10.8337 9.54009 10.4606 9.16699 10.0003 9.16699C9.54009 9.16699 9.16699 9.54009 9.16699 10.0003C9.16699 10.4606 9.54009 10.8337 10.0003 10.8337Z" stroke="white" stroke-width="2" stroke-linecap="round" stroke-linejoin="round"/>
<path d="M10.0003 4.99967C10.4606 4.99967 10.8337 4.62658 10.8337 4.16634C10.8337 3.7061 10.4606 3.33301 10.0003 3.33301C9.54009 3.33301 9.16699 3.7061 9.16699 4.16634C9.16699 4.62658 9.54009 4.99967 10.0003 4.99967Z" stroke="white" stroke-width="2" stroke-linecap="round" stroke-linejoin="round"/>
<path d="M10.0003 16.6667C10.4606 16.6667 10.8337 16.2936 10.8337 15.8333C10.8337 15.3731 10.4606 15 10.0003 15C9.54009 15 9.16699 15.3731 9.16699 15.8333C9.16699 16.2936 9.54009 16.6667 10.0003 16.6667Z" stroke="white" stroke-width="2" stroke-linecap="round" stroke-linejoin="round"/>
</svg>
