<svg width="15" height="15" viewBox="0 0 15 15" fill="none" xmlns="http://www.w3.org/2000/svg">
<path d="M14.4643 3.75001H11.7857V0.535724C11.7857 0.239847 11.5459 0 11.25 0H0.535724C0.239847 0 0 0.239847 0 0.535724V12.8571C0 14.0406 0.959388 15 2.14287 15H12.8571C14.0406 15 15 14.0406 15 12.8571V4.2857C15 3.98986 14.7602 3.75001 14.4643 3.75001ZM4.2857 2.67856H7.49998C7.79586 2.67856 8.03571 2.91841 8.03571 3.21428C8.03571 3.51016 7.79586 3.75001 7.49998 3.75001H4.2857C3.98982 3.75001 3.74998 3.51016 3.74998 3.21428C3.74998 2.91841 3.98986 2.67856 4.2857 2.67856ZM9.10713 12.8571H2.67856C2.38268 12.8571 2.14283 12.6173 2.14283 12.3214C2.14283 12.0255 2.38268 11.7857 2.67856 11.7857H9.10713C9.403 11.7857 9.64285 12.0255 9.64285 12.3214C9.64285 12.6173 9.403 12.8571 9.10713 12.8571ZM9.10713 10.7143H2.67856C2.38268 10.7143 2.14283 10.4744 2.14283 10.1785C2.14283 9.88267 2.38268 9.64282 2.67856 9.64282H9.10713C9.403 9.64282 9.64285 9.88267 9.64285 10.1785C9.64285 10.4744 9.403 10.7143 9.10713 10.7143ZM9.10713 8.57143H2.67856C2.38268 8.57143 2.14283 8.33159 2.14283 8.03571C2.14283 7.73983 2.38268 7.49998 2.67856 7.49998H9.10713C9.403 7.49998 9.64285 7.73983 9.64285 8.03571C9.64285 8.33159 9.403 8.57143 9.10713 8.57143ZM9.10713 6.42857H2.67856C2.38268 6.42857 2.14283 6.18872 2.14283 5.89284C2.14283 5.59697 2.38268 5.35712 2.67856 5.35712H9.10713C9.403 5.35712 9.64285 5.59697 9.64285 5.89284C9.64285 6.18872 9.403 6.42857 9.10713 6.42857ZM13.9286 12.8571C13.9286 13.4489 13.4489 13.9286 12.8571 13.9286C12.2654 13.9286 11.7857 13.4489 11.7857 12.8571V4.82143H13.9286V12.8571H13.9286Z" fill="#BDBDBD"/>
</svg>
