<svg width="48" height="48" viewBox="0 0 48 48" fill="none" xmlns="http://www.w3.org/2000/svg">
<path d="M40.9705 7.02947C36.4376 2.49638 30.4106 0 24 0C17.5894 0 11.5624 2.49638 7.02947 7.02947C2.49638 11.5624 0 17.5894 0 24C0 30.4106 2.49638 36.4376 7.02947 40.9705C11.5625 45.5036 17.5894 48 24 48C30.4106 48 36.4376 45.5036 40.9705 40.9705C45.5036 36.4376 48 30.4106 48 24C48 17.5894 45.5036 11.5624 40.9705 7.02947ZM2.91412 24C2.91412 12.3732 12.3732 2.91412 24 2.91412C29.2901 2.91412 34.1312 4.87284 37.8369 8.10253L32.8289 13.1106C30.1125 11.7879 27.1103 11.0881 24 11.0881C18.6065 11.0881 13.5356 13.1885 9.72169 17.0024C9.15263 17.5714 9.15263 18.494 9.72169 19.0629C10.2907 19.6319 11.2133 19.6319 11.7822 19.0629C15.0457 15.7995 19.3848 14.0021 24 14.0021C26.3116 14.0021 28.5537 14.4532 30.6262 15.3131L27.4177 18.5218C26.3165 18.2288 25.17 18.0768 24 18.0768C20.4731 18.0768 17.1574 19.4503 14.6634 21.9442C14.0944 22.5131 14.0944 23.4357 14.6634 24.0047C14.948 24.2892 15.3208 24.4315 15.6937 24.4315C16.0665 24.4315 16.4394 24.2892 16.7239 24.0047C18.6674 22.0612 21.2513 20.9908 23.9998 20.9908C24.3049 20.9908 24.6079 21.0048 24.9083 21.0309L8.10253 37.837C4.87284 34.1312 2.91412 29.2902 2.91412 24ZM26.5309 28.7498C27.9263 30.1453 27.9263 32.4159 26.5309 33.8115C25.1353 35.2069 22.8647 35.2071 21.4692 33.8115C20.0737 32.4159 20.0737 30.1453 21.4692 28.7498C22.1669 28.0521 23.0835 27.7032 24 27.7032C24.9166 27.7032 25.8331 28.0521 26.5309 28.7498ZM24 45.0859C18.7099 45.0859 13.8688 43.1272 10.1631 39.8975L17.6156 32.4449C17.8428 33.7012 18.4395 34.903 19.4087 35.872C20.6746 37.1379 22.3372 37.7708 24.0001 37.7708C25.6629 37.7708 27.3257 37.1379 28.5915 35.872C31.1231 33.3404 31.1231 29.2208 28.5915 26.6891C27.6225 25.72 26.4206 25.1233 25.1645 24.8961L28.1858 21.8748C29.323 22.3814 30.3693 23.0979 31.276 24.0047C31.845 24.5738 32.7676 24.5737 33.3366 24.0047C33.9056 23.4357 33.9056 22.5131 33.3366 21.9442C32.4405 21.0481 31.4379 20.2975 30.3579 19.7025L33.3292 16.7313C34.3609 17.3957 35.3294 18.1745 36.2178 19.0628C36.5023 19.3474 36.8752 19.4897 37.248 19.4897C37.6208 19.4897 37.9938 19.3474 38.2782 19.0628C38.8473 18.4939 38.8473 17.5713 38.2782 17.0023C37.393 16.1171 36.4394 15.3256 35.4305 14.6298L39.8974 10.1629C43.1271 13.8687 45.0858 18.7097 45.0858 23.9998C45.0859 35.6268 35.6268 45.0859 24 45.0859Z" fill="white"/>
</svg>
