<svg width="15" height="15" viewBox="0 0 15 15" fill="none" xmlns="http://www.w3.org/2000/svg">
<path d="M9.28711 6.15234C8.56018 6.15234 7.96875 6.74377 7.96875 7.4707V7.91016H10.6055V7.4707C10.6055 6.74377 10.014 6.15234 9.28711 6.15234Z" fill="white"/>
<path d="M9.28711 0C6.13712 0 3.57422 2.5629 3.57422 5.71289C3.57422 8.86288 6.13712 11.4258 9.28711 11.4258C12.4371 11.4258 15 8.86288 15 5.71289C15 2.5629 12.4371 0 9.28711 0ZM11.4844 8.78906H7.08984V7.4707C7.08984 6.25923 8.07564 5.27344 9.28711 5.27344C8.56018 5.27344 7.96875 4.68201 7.96875 3.95508C7.96875 3.22815 8.56018 2.63672 9.28711 2.63672C10.014 2.63672 10.6055 3.22815 10.6055 3.95508C10.6055 4.68201 10.014 5.27344 9.28711 5.27344C10.4986 5.27344 11.4844 6.25923 11.4844 7.4707V8.78906Z" fill="white"/>
<path d="M9.28711 3.51562C9.04461 3.51562 8.84766 3.71258 8.84766 3.95508C8.84766 4.19758 9.04461 4.39453 9.28711 4.39453C9.52961 4.39453 9.72656 4.19758 9.72656 3.95508C9.72656 3.71258 9.52961 3.51562 9.28711 3.51562Z" fill="white"/>
<path d="M3.79131 9.34473L1.95361 11.0191L3.98093 13.0463L5.65681 11.2097C4.91683 10.7193 4.2818 10.0845 3.79131 9.34473Z" fill="white"/>
<path d="M3.38928 13.697L1.30268 11.6104L0 12.7942L2.20539 14.9996L3.38928 13.697Z" fill="white"/>
</svg>
