<svg width="32" height="32" viewBox="0 0 52 52" fill="none" xmlns="http://www.w3.org/2000/svg">
<path d="M26 0C11.664 0 0 11.663 0 26C0 40.337 11.664 52 26 52C40.336 52 52 40.337 52 26C52 11.663 40.336 0 26 0ZM26 50C12.767 50 2 39.233 2 26C2 12.767 12.767 2 26 2C39.233 2 50 12.767 50 26C50 39.233 39.233 50 26 50Z" fill="#D0D0D0"/>
<path d="M38.5 25H27V14C27 13.447 26.552 13 26 13C25.448 13 25 13.447 25 14V25H13.5C12.948 25 12.5 25.447 12.5 26C12.5 26.553 12.948 27 13.5 27H25V39C25 39.553 25.448 40 26 40C26.552 40 27 39.553 27 39V27H38.5C39.052 27 39.5 26.553 39.5 26C39.5 25.447 39.052 25 38.5 25Z" fill="#D0D0D0"/>
</svg>
