<svg width="18" height="18" viewBox="0 0 16 16" fill="none" 
    xmlns="http://www.w3.org/2000/svg">
    <path d="M8 0C3.58892 0 0 3.58862 0 8C0 12.4114 3.58892 16 8 16C12.4111 16 16 12.4114 16 8C16 3.58862 12.4111 0 8 0ZM11.8462 8.61538H8.61538V12C8.61538 12.3397 8.33969 12.6154 8 12.6154C7.66031 12.6154 7.38462 12.3397 7.38462 12V8.61538H4.15385C3.81415 8.61538 3.53846 8.33969 3.53846 8C3.53846 7.66031 3.81415 7.38462 4.15385 7.38462H7.38462V4.30769C7.38462 3.968 7.66031 3.69231 8 3.69231C8.33969 3.69231 8.61538 3.968 8.61538 4.30769V7.38462H11.8462C12.1858 7.38462 12.4615 7.66031 12.4615 8C12.4615 8.33969 12.1858 8.61538 11.8462 8.61538Z" fill="#BDBDBD"/>
</svg>