<svg width="18" height="18" viewBox="0 0 18 18" fill="none" xmlns="http://www.w3.org/2000/svg">
<circle cx="9.00006" cy="9" r="8.5" fill="white" stroke="black"/>
<path d="M7.75201 10.9214V10.4517C7.75201 10.0454 7.83877 9.69206 8.01227 9.3916C8.18577 9.09115 8.50315 8.77165 8.96442 8.43311C9.40875 8.11572 9.70074 7.85758 9.84039 7.65869C9.98427 7.4598 10.0562 7.23763 10.0562 6.99219C10.0562 6.71712 9.95465 6.50765 9.75153 6.36377C9.5484 6.21989 9.26487 6.14795 8.90094 6.14795C8.26617 6.14795 7.54254 6.35531 6.73004 6.77002L6.03815 5.37988C6.98183 4.85091 7.98265 4.58643 9.04059 4.58643C9.91233 4.58643 10.6042 4.7959 11.1163 5.21484C11.6325 5.63379 11.8907 6.19238 11.8907 6.89062C11.8907 7.35612 11.7849 7.75814 11.5733 8.09668C11.3617 8.43522 10.9597 8.81608 10.3672 9.23926C9.961 9.53971 9.70286 9.76823 9.59283 9.9248C9.48704 10.0814 9.43414 10.2866 9.43414 10.5405V10.9214H7.75201ZM7.54889 13.0923C7.54889 12.7368 7.6441 12.4681 7.83453 12.2861C8.02496 12.1042 8.30214 12.0132 8.66608 12.0132C9.01731 12.0132 9.28815 12.1063 9.47858 12.2925C9.67324 12.4787 9.77057 12.7453 9.77057 13.0923C9.77057 13.4266 9.67324 13.6911 9.47858 13.8857C9.28392 14.0762 9.01308 14.1714 8.66608 14.1714C8.31061 14.1714 8.03554 14.0783 7.84088 13.8921C7.64622 13.7017 7.54889 13.4351 7.54889 13.0923Z" fill="black"/>
</svg>
