<svg width="12" height="12" viewBox="0 0 12 12" fill="none" xmlns="http://www.w3.org/2000/svg">
<path d="M0.335221 11.6648C-0.11174 11.2178 -0.11174 10.4929 0.335221 10.0459L4.38115 6L0.335221 1.95408C-0.11174 1.50712 -0.11174 0.782183 0.335221 0.335221C0.782184 -0.11174 1.50712 -0.11174 1.95408 0.335221L6 4.38115L10.0459 0.335222C10.4929 -0.11174 11.2178 -0.11174 11.6648 0.335222C12.1117 0.782183 12.1117 1.50712 11.6648 1.95408L7.61885 6L11.6648 10.0459C12.1117 10.4929 12.1117 11.2178 11.6648 11.6648C11.2178 12.1117 10.4929 12.1117 10.0459 11.6648L6 7.61885L1.95408 11.6648C1.50712 12.1117 0.782184 12.1117 0.335221 11.6648Z" fill="#C00000"/>
</svg>
