<svg width="20" height="20" viewBox="0 0 20 20" fill="none" xmlns="http://www.w3.org/2000/svg">
<path d="M13.334 3.33398H15.0006C15.4427 3.33398 15.8666 3.50958 16.1792 3.82214C16.4917 4.1347 16.6673 4.55862 16.6673 5.00065V16.6673C16.6673 17.1093 16.4917 17.5333 16.1792 17.8458C15.8666 18.1584 15.4427 18.334 15.0006 18.334H5.00065C4.55862 18.334 4.1347 18.1584 3.82214 17.8458C3.50958 17.5333 3.33398 17.1093 3.33398 16.6673V5.00065C3.33398 4.55862 3.50958 4.1347 3.82214 3.82214C4.1347 3.50958 4.55862 3.33398 5.00065 3.33398H6.66732" stroke="white" stroke-width="1.5" stroke-linecap="round" stroke-linejoin="round"/>
<path d="M12.4993 1.66602H7.49935C7.03911 1.66602 6.66602 2.03911 6.66602 2.49935V4.16602C6.66602 4.62625 7.03911 4.99935 7.49935 4.99935H12.4993C12.9596 4.99935 13.3327 4.62625 13.3327 4.16602V2.49935C13.3327 2.03911 12.9596 1.66602 12.4993 1.66602Z" stroke="white" stroke-width="1.5" stroke-linecap="round" stroke-linejoin="round"/>
</svg>
