<svg width="24" height="24" viewBox="0 0 24 24" fill="none" xmlns="http://www.w3.org/2000/svg">
<path fill-rule="evenodd" clip-rule="evenodd" d="M5 3.75C4.66848 3.75 4.35054 3.8817 4.11612 4.11612C3.8817 4.35054 3.75 4.66848 3.75 5V19C3.75 19.3315 3.8817 19.6495 4.11612 19.8839C4.35054 20.1183 4.66848 20.25 5 20.25H6.25V13C6.25 12.5858 6.58579 12.25 7 12.25H17C17.4142 12.25 17.75 12.5858 17.75 13V20.25H19C19.3315 20.25 19.6495 20.1183 19.8839 19.8839C20.1183 19.6495 20.25 19.3315 20.25 19V8.31066L15.6893 3.75H7.75V7.25H15V8.75H7C6.58579 8.75 6.25 8.41421 6.25 8V3.75H5ZM16.25 20.25V13.75H7.75V20.25H16.25ZM3.05546 3.05546C3.57118 2.53973 4.27065 2.25 5 2.25H16C16.1989 2.25 16.3897 2.32902 16.5303 2.46967L21.5303 7.46967C21.671 7.61032 21.75 7.80109 21.75 8V19C21.75 19.7293 21.4603 20.4288 20.9445 20.9445C20.4288 21.4603 19.7293 21.75 19 21.75H5C4.27065 21.75 3.57118 21.4603 3.05546 20.9445C2.53973 20.4288 2.25 19.7293 2.25 19V5C2.25 4.27065 2.53973 3.57118 3.05546 3.05546Z" fill="white"/>
</svg>
