<svg width="10" height="11" viewBox="0 0 10 11" fill="none" xmlns="http://www.w3.org/2000/svg">
<path fill-rule="evenodd" clip-rule="evenodd" d="M1.38773 10.2534C1.38773 10.2534 1.59085 11 2.63635 11H7.36365C8.4091 11 8.61222 10.2534 8.61222 10.2534L9.54546 2.93335H0.454536L1.38773 10.2534ZM6.8182 4.03337C6.8182 3.83084 7.02167 3.66671 7.27273 3.66671C7.5238 3.66671 7.72732 3.83084 7.72732 4.03337L7.27273 9.53337C7.27273 9.73589 7.06921 9.90002 6.8182 9.90002C6.56718 9.90002 6.36366 9.73585 6.36366 9.53337L6.8182 4.03337ZM4.54546 4.03337C4.54546 3.83084 4.74899 3.66671 5 3.66671C5.25106 3.66671 5.45454 3.83084 5.45454 4.03337V9.53337C5.45454 9.73589 5.25106 9.90002 5 9.90002C4.74894 9.90002 4.54546 9.73585 4.54546 9.53337V4.03337ZM2.72727 3.66667C2.97833 3.66667 3.1818 3.8308 3.1818 4.03332L3.63639 9.53332C3.63639 9.73585 3.43287 9.89998 3.1818 9.89998C2.93079 9.89998 2.72727 9.73581 2.72727 9.53332L2.27273 4.03337C2.27273 3.83084 2.47625 3.66667 2.72727 3.66667ZM9.27271 1.46725H7.27273V0.733358C7.27273 0.177081 7.04971 0 6.36366 0H3.63634C3.00708 0 2.72727 0.245873 2.72727 0.733358V1.46729H0.727288C0.325322 1.46729 0 1.71341 0 2.01754C0 2.32172 0.325322 2.56784 0.727288 2.56784H9.27271C9.67468 2.56784 10 2.32172 10 2.01754C10 1.71341 9.67468 1.46725 9.27271 1.46725ZM6.36366 1.46725H3.63639L3.63644 0.733317H6.36371V1.46725H6.36366Z" fill="#BDBDBD"/>
</svg>
