<svg width="128" height="12" viewBox="0 0 128 12" fill="none" xmlns="http://www.w3.org/2000/svg">
<path d="M2.816 9.272V1.032C2.816 0.52 2.4 0.103999 1.888 0.103999C1.376 0.103999 0.96 0.52 0.96 1.032V10.104C0.96 10.616 1.344 11 1.872 11H6.608C7.136 11 7.504 10.632 7.504 10.136C7.504 9.656 7.136 9.272 6.608 9.272H2.816ZM18.4834 6.504H15.8594L17.1714 3.144L18.4834 6.504ZM19.1074 8.2L20.0834 10.52C20.2274 10.856 20.5314 11.128 20.9474 11.128C21.4434 11.128 21.8594 10.712 21.8594 10.216C21.8594 10.12 21.8434 9.992 21.7954 9.88L18.0194 0.679999C17.9234 0.455999 17.6674 0.103999 17.1714 0.103999C16.6754 0.103999 16.4194 0.455999 16.3234 0.679999L12.5474 9.88C12.4994 9.992 12.4834 10.12 12.4834 10.216C12.4834 10.712 12.8994 11.128 13.3954 11.128C13.8114 11.128 14.1154 10.856 14.2594 10.52L15.2354 8.2H19.1074ZM34.0997 11C34.5637 11 34.9317 10.632 34.9317 10.168C34.9317 9.704 34.5637 9.336 34.0997 9.336H29.2197L34.5798 1.512C34.6917 1.352 34.7238 1.192 34.7238 1.048C34.7238 0.599999 34.3557 0.231999 33.9077 0.231999H27.8597C27.4117 0.231999 27.0437 0.599999 27.0437 1.048C27.0437 1.496 27.4117 1.864 27.8597 1.864H32.2597L26.8837 9.672C26.7877 9.8 26.7237 9.992 26.7237 10.168C26.7237 10.632 27.0917 11 27.5557 11H34.0997ZM41.476 0.535999C41.3 0.264 41.028 0.103999 40.692 0.103999C40.18 0.103999 39.764 0.52 39.764 1.032C39.764 1.208 39.812 1.4 39.908 1.528L42.964 6.088V10.2C42.964 10.712 43.38 11.128 43.892 11.128C44.404 11.128 44.82 10.712 44.82 10.2V6.088L47.876 1.528C47.972 1.4 48.02 1.208 48.02 1.032C48.02 0.52 47.604 0.103999 47.092 0.103999C46.756 0.103999 46.468 0.28 46.308 0.535999L43.892 4.328L41.476 0.535999ZM68.4727 1.864C68.9207 1.864 69.2887 1.496 69.2887 1.048C69.2887 0.599999 68.9207 0.231999 68.4727 0.231999H61.7207C61.2727 0.231999 60.9047 0.599999 60.9047 1.048C60.9047 1.496 61.2727 1.864 61.7207 1.864H64.1687V10.2C64.1687 10.712 64.5847 11.128 65.0967 11.128C65.6087 11.128 66.0247 10.712 66.0247 10.2V1.864H68.4727ZM76.7672 1.032C76.7672 0.52 76.3512 0.103999 75.8392 0.103999C75.3272 0.103999 74.9112 0.52 74.9112 1.032V10.2C74.9112 10.712 75.3272 11.128 75.8392 11.128C76.3512 11.128 76.7672 10.712 76.7672 10.2V1.032ZM88.0525 9.304C88.3725 9.304 88.6765 9.144 88.8365 8.856L91.3485 4.392V10.216C91.3485 10.712 91.7645 11.128 92.2605 11.128C92.7565 11.128 93.1725 10.712 93.1725 10.216V1.016C93.1725 0.52 92.7565 0.103999 92.2605 0.103999C91.8605 0.103999 91.6045 0.327999 91.4445 0.615999L88.0525 6.696L84.6605 0.615999C84.5005 0.327999 84.2445 0.103999 83.8445 0.103999C83.3485 0.103999 82.9325 0.52 82.9325 1.016V10.216C82.9325 10.712 83.3485 11.128 83.8445 11.128C84.3405 11.128 84.7565 10.712 84.7565 10.216V4.392L87.2685 8.856C87.4285 9.144 87.7325 9.304 88.0525 9.304ZM101.267 1.896H105.331C105.795 1.896 106.163 1.528 106.163 1.064C106.163 0.599999 105.795 0.231999 105.331 0.231999H100.339C99.8266 0.231999 99.4106 0.648 99.4106 1.16V10.072C99.4106 10.584 99.8266 11 100.339 11H105.507C105.971 11 106.339 10.632 106.339 10.168C106.339 9.704 105.971 9.336 105.507 9.336H101.267V6.392H104.291C104.739 6.392 105.107 6.024 105.107 5.576C105.107 5.128 104.739 4.76 104.291 4.76H101.267V1.896ZM115.002 6.872L117.914 10.792C118.074 11 118.362 11.128 118.634 11.128C119.146 11.128 119.562 10.712 119.562 10.2C119.562 10.024 119.514 9.832 119.37 9.64L117.002 6.76C118.538 6.568 119.466 5.096 119.466 3.576C119.466 1.768 118.25 0.231999 116.09 0.231999H113.034C112.522 0.231999 112.106 0.648 112.106 1.16V10.2C112.106 10.712 112.522 11.128 113.034 11.128C113.546 11.128 113.962 10.712 113.962 10.2V6.872H115.002ZM116.074 1.896C117.114 1.896 117.546 2.712 117.546 3.576C117.546 4.424 117.114 5.24 116.122 5.24H113.962V1.896H116.074Z" fill="white"/>
<path d="M126.227 11.128C126.899 11.128 127.267 10.792 127.267 10.088C127.267 9.368 126.899 9.016 126.227 9.016C125.555 9.016 125.171 9.368 125.171 10.088C125.171 10.792 125.555 11.128 126.227 11.128Z" fill="#56CCF2"/>
</svg>
