<svg width="298" height="40" viewBox="0 0 298 40" fill="none" xmlns="http://www.w3.org/2000/svg">
<path d="M6.336 24.112V5.572C6.336 4.42 5.4 3.484 4.248 3.484C3.096 3.484 2.16 4.42 2.16 5.572V25.984C2.16 27.136 3.024 28 4.212 28H14.868C16.056 28 16.884 27.172 16.884 26.056C16.884 24.976 16.056 24.112 14.868 24.112H6.336ZM41.5876 17.884H35.6836L38.6356 10.324L41.5876 17.884ZM42.9916 21.7L45.1876 26.92C45.5116 27.676 46.1956 28.288 47.1316 28.288C48.2476 28.288 49.1836 27.352 49.1836 26.236C49.1836 26.02 49.1476 25.732 49.0396 25.48L40.5436 4.78C40.3276 4.276 39.7516 3.484 38.6356 3.484C37.5196 3.484 36.9436 4.276 36.7276 4.78L28.2316 25.48C28.1236 25.732 28.0876 26.02 28.0876 26.236C28.0876 27.352 29.0236 28.288 30.1396 28.288C31.0756 28.288 31.7596 27.676 32.0836 26.92L34.2796 21.7H42.9916ZM76.7244 28C77.7684 28 78.5964 27.172 78.5964 26.128C78.5964 25.084 77.7684 24.256 76.7244 24.256H65.7444L77.8044 6.652C78.0564 6.292 78.1284 5.932 78.1284 5.608C78.1284 4.6 77.3004 3.772 76.2924 3.772H62.6844C61.6764 3.772 60.8484 4.6 60.8484 5.608C60.8484 6.616 61.6764 7.444 62.6844 7.444H72.5844L60.4884 25.012C60.2724 25.3 60.1284 25.732 60.1284 26.128C60.1284 27.172 60.9564 28 62.0004 28H76.7244ZM93.321 4.456C92.925 3.844 92.313 3.484 91.557 3.484C90.405 3.484 89.469 4.42 89.469 5.572C89.469 5.968 89.577 6.4 89.793 6.688L96.669 16.948V26.2C96.669 27.352 97.605 28.288 98.757 28.288C99.909 28.288 100.845 27.352 100.845 26.2V16.948L107.721 6.688C107.937 6.4 108.045 5.968 108.045 5.572C108.045 4.42 107.109 3.484 105.957 3.484C105.201 3.484 104.553 3.88 104.193 4.456L98.757 12.988L93.321 4.456ZM154.064 7.444C155.072 7.444 155.9 6.616 155.9 5.608C155.9 4.6 155.072 3.772 154.064 3.772H138.872C137.864 3.772 137.036 4.6 137.036 5.608C137.036 6.616 137.864 7.444 138.872 7.444H144.38V26.2C144.38 27.352 145.316 28.288 146.468 28.288C147.62 28.288 148.556 27.352 148.556 26.2V7.444H154.064ZM172.726 5.572C172.726 4.42 171.79 3.484 170.638 3.484C169.486 3.484 168.55 4.42 168.55 5.572V26.2C168.55 27.352 169.486 28.288 170.638 28.288C171.79 28.288 172.726 27.352 172.726 26.2V5.572ZM198.118 24.184C198.838 24.184 199.522 23.824 199.882 23.176L205.534 13.132V26.236C205.534 27.352 206.47 28.288 207.586 28.288C208.702 28.288 209.638 27.352 209.638 26.236V5.536C209.638 4.42 208.702 3.484 207.586 3.484C206.686 3.484 206.11 3.988 205.75 4.636L198.118 18.316L190.486 4.636C190.126 3.988 189.55 3.484 188.65 3.484C187.534 3.484 186.598 4.42 186.598 5.536V26.236C186.598 27.352 187.534 28.288 188.65 28.288C189.766 28.288 190.702 27.352 190.702 26.236V13.132L196.354 23.176C196.714 23.824 197.398 24.184 198.118 24.184ZM227.85 7.516H236.994C238.038 7.516 238.866 6.688 238.866 5.644C238.866 4.6 238.038 3.772 236.994 3.772H225.762C224.61 3.772 223.674 4.708 223.674 5.86V25.912C223.674 27.064 224.61 28 225.762 28H237.39C238.434 28 239.262 27.172 239.262 26.128C239.262 25.084 238.434 24.256 237.39 24.256H227.85V17.632H234.654C235.662 17.632 236.49 16.804 236.49 15.796C236.49 14.788 235.662 13.96 234.654 13.96H227.85V7.516ZM258.754 18.712L265.306 27.532C265.666 28 266.314 28.288 266.926 28.288C268.078 28.288 269.014 27.352 269.014 26.2C269.014 25.804 268.906 25.372 268.582 24.94L263.254 18.46C266.71 18.028 268.798 14.716 268.798 11.296C268.798 7.228 266.062 3.772 261.202 3.772H254.326C253.174 3.772 252.238 4.708 252.238 5.86V26.2C252.238 27.352 253.174 28.288 254.326 28.288C255.478 28.288 256.414 27.352 256.414 26.2V18.712H258.754ZM261.166 7.516C263.506 7.516 264.478 9.352 264.478 11.296C264.478 13.204 263.506 15.04 261.274 15.04H256.414V7.516H261.166Z" fill="white"/>
<path d="M284.01 28.288C285.522 28.288 286.35 27.532 286.35 25.948C286.35 24.328 285.522 23.536 284.01 23.536C282.498 23.536 281.634 24.328 281.634 25.948C281.634 27.532 282.498 28.288 284.01 28.288Z" fill="#56CCF2"/>
</svg>
