<svg width="15" height="15" viewBox="0 0 15 15" fill="none" xmlns="http://www.w3.org/2000/svg">
<g clip-path="url(#clip0)">
<path d="M14.8686 14.235L11.2234 10.5898C12.2012 9.46563 12.7932 7.99889 12.7932 6.39579C12.7932 2.86696 9.92293 0 6.39744 0C2.86861 0 0.00164795 2.87029 0.00164795 6.39579C0.00164795 9.92129 2.87194 12.7916 6.39744 12.7916C8.00054 12.7916 9.46728 12.1996 10.5914 11.2217L14.2367 14.867C14.3232 14.9534 14.4396 15 14.5526 15C14.6657 15 14.7821 14.9568 14.8686 14.867C15.0416 14.694 15.0416 14.408 14.8686 14.235ZM0.896327 6.39579C0.896327 3.36253 3.36418 0.898004 6.39411 0.898004C9.42737 0.898004 11.8919 3.36585 11.8919 6.39579C11.8919 9.42572 9.42737 11.8969 6.39411 11.8969C3.36418 11.8969 0.896327 9.42905 0.896327 6.39579Z" fill="white"/>
</g>
<defs>
<clipPath id="clip0">
<rect width="15" height="15" fill="white"/>
</clipPath>
</defs>
</svg>
