<svg width="15" height="15" viewBox="0 0 15 15" fill="none" xmlns="http://www.w3.org/2000/svg">
<path fill-rule="evenodd" clip-rule="evenodd" d="M9.28273 7.50004L14.6308 2.15198C15.1231 1.65968 15.1231 0.861516 14.6308 0.369292C14.1385 -0.123003 13.3404 -0.123003 12.8481 0.369292L7.49997 5.71742L2.15185 0.369221C1.65956 -0.123074 0.861463 -0.123074 0.369168 0.369221C-0.123056 0.861516 -0.123056 1.65968 0.369168 2.15191L5.71729 7.49996L0.369168 12.8481C-0.123056 13.3404 -0.123056 14.1386 0.369168 14.6308C0.861463 15.1231 1.65956 15.1231 2.15185 14.6308L7.49997 9.28265L12.8481 14.6308C13.3403 15.1231 14.1385 15.1231 14.6308 14.6308C15.1231 14.1385 15.1231 13.3404 14.6308 12.8481L9.28273 7.50004Z" fill="#EB5757"/>
</svg>
