<svg width="15" height="15" viewBox="0 0 15 15" fill="none" xmlns="http://www.w3.org/2000/svg">
<path d="M7.49988 0C3.35786 0 0 3.35796 0 7.49988C0 11.6418 3.35786 15 7.49988 15C11.6419 15 15 11.6418 15 7.49988C15 3.35796 11.6419 0 7.49988 0ZM10.7423 8.92635H7.56263C7.55188 8.92635 7.54188 8.92375 7.53123 8.92335C7.52058 8.92385 7.51063 8.92635 7.49983 8.92635C7.21337 8.92635 6.98112 8.69409 6.98112 8.40764V3.1125C6.98112 2.82605 7.21337 2.59379 7.49983 2.59379C7.78628 2.59379 8.01853 2.82605 8.01853 3.1125V7.88893H10.7421C11.0285 7.88893 11.2608 8.12119 11.2608 8.40764C11.2608 8.69409 11.0287 8.92635 10.7423 8.92635Z" fill="white"/>
</svg>
