<svg width="15" height="15" viewBox="0 0 15 15" fill="none" xmlns="http://www.w3.org/2000/svg">
<path d="M2.38389 2.96329C3.20085 2.96329 3.86312 2.29993 3.86312 1.48164C3.86312 0.663355 3.20085 0 2.38389 0C1.56694 0 0.904663 0.663355 0.904663 1.48164C0.904663 2.29993 1.56694 2.96329 2.38389 2.96329Z" fill="#BDBDBD"/>
<path d="M0.733502 8.15504H0.880203V11.0938C0.880203 11.4981 1.21028 11.8285 1.61371 11.8285H3.15406C3.55749 11.8285 3.88756 11.4981 3.88756 11.0938V10.9225C3.75309 10.6653 3.66751 10.3715 3.66751 10.0654V6.22046C3.66751 5.47351 4.11984 4.82453 4.76777 4.54289V4.24901C4.76777 3.84493 4.43769 3.51431 4.03426 3.51431H0.733502C0.330076 3.51431 0 3.84493 0 4.24901V7.42047C0 7.82455 0.317851 8.15504 0.733502 8.15504Z" fill="#BDBDBD"/>
<path d="M12.6285 2.96329C13.4455 2.96329 14.1078 2.29993 14.1078 1.48164C14.1078 0.663355 13.4455 0 12.6285 0C11.8116 0 11.1493 0.663355 11.1493 1.48164C11.1493 2.29993 11.8116 2.96329 12.6285 2.96329Z" fill="#BDBDBD"/>
<path d="M10.2322 4.23677V4.53065C10.8802 4.81228 11.3324 5.46127 11.3324 6.20821V10.0409C11.3324 10.347 11.2591 10.6409 11.1125 10.898V11.0695C11.1125 11.4736 11.4425 11.8042 11.846 11.8042H13.3864C13.7898 11.8042 14.1199 11.4736 14.1199 11.0695V8.13068H14.2664C14.67 8.13068 14.9999 7.80006 14.9999 7.39598V4.23677C14.9999 3.83268 14.67 3.50207 14.2664 3.50207H10.9657C10.5624 3.50207 10.2322 3.83256 10.2322 4.23677Z" fill="#BDBDBD"/>
<path d="M4.78003 6.22033V7.42034V10.0653C4.78003 10.4693 5.11011 10.8 5.51353 10.8H5.79471V14.2653C5.79471 14.6694 6.12478 15 6.52821 15H8.49644C8.89987 15 9.22994 14.6694 9.22994 14.2653V10.7877H9.51112C9.91455 10.7877 10.2446 10.4572 10.2446 10.053V7.42047V6.22046C10.2446 5.81637 9.91455 5.48576 9.51112 5.48576H5.51353C5.09788 5.48563 4.78003 5.81637 4.78003 6.22033Z" fill="#BDBDBD"/>
<path d="M7.50617 4.87351C8.44465 4.87351 9.20545 4.11147 9.20545 3.17145C9.20545 2.23143 8.44465 1.4694 7.50617 1.4694C6.56768 1.4694 5.80688 2.23143 5.80688 3.17145C5.80688 4.11147 6.56768 4.87351 7.50617 4.87351Z" fill="#BDBDBD"/>
</svg>
